<svg xmlns="http://www.w3.org/2000/svg" viewBox="0 0 1200 680" width="1200" height="680" role="img"><defs>
<pattern id="pgr" width="7" height="7" patternUnits="userSpaceOnUse">
<circle cx="1.4" cy="1.4" r=".5" fill="#241F18" opacity=".05"/>
<circle cx="5" cy="4.6" r=".4" fill="#241F18" opacity=".04"/>
</pattern>
<radialGradient id="vgr" cx="50%" cy="42%" r="72%">
<stop offset="55%" stop-color="#fff" stop-opacity="0"/>
<stop offset="100%" stop-color="#241F18" stop-opacity=".07"/>
</radialGradient>
<linearGradient id="skr" x1="0" y1="0" x2="0" y2="1">
<stop offset="0" stop-color="#E3D8C2" stop-opacity=".55"/>
<stop offset="1" stop-color="#E3D8C2" stop-opacity="0"/>
</linearGradient>
<clipPath id="cpr"><rect x="0" y="0" width="1200" height="680"/></clipPath>
</defs><g clip-path="url(#cpr)"><rect width="1200" height="680" fill="#F5EFE2"/><rect width="1200" height="680" fill="url(#pgr)"/><rect width="1200" height="680" fill="url(#vgr)"/><rect width="1200" height="680" fill="url(#skr)"/><g transform="translate(90,74) scale(1.7,1.7)" opacity="0.08"><path d="M0,18 c0,-10 8,-16 16,-14 2,-8 12,-11 18,-5 6,-5 15,-2 16,6 7,1 10,8 7,13 z" fill="#241F18"/><path d="M6,18 c2,-6 8,-9 13,-7 M24,10 c4,-3 9,-1 11,3" fill="none" stroke="#F5EFE2" stroke-width="1.6" stroke-linecap="round" opacity=".55"/></g><g transform="translate(1010,60) scale(-1.9,1.9)" opacity="0.07"><path d="M0,18 c0,-10 8,-16 16,-14 2,-8 12,-11 18,-5 6,-5 15,-2 16,6 7,1 10,8 7,13 z" fill="#241F18"/><path d="M6,18 c2,-6 8,-9 13,-7 M24,10 c4,-3 9,-1 11,3" fill="none" stroke="#F5EFE2" stroke-width="1.6" stroke-linecap="round" opacity=".55"/></g><path d="M0,566 H1200" stroke="#241F18" stroke-width="2.6" stroke-opacity=".2"/><path d="M430,618.4 v-12.4 h12.4 v6.800000000000001 h-6.0 v-2.0 M450,618.4 v-12.4 h12.4 v6.800000000000001 h-6.0 v-2.0 M470,618.4 v-12.4 h12.4 v6.800000000000001 h-6.0 v-2.0 M490,618.4 v-12.4 h12.4 v6.800000000000001 h-6.0 v-2.0 M510,618.4 v-12.4 h12.4 v6.800000000000001 h-6.0 v-2.0 M530,618.4 v-12.4 h12.4 v6.800000000000001 h-6.0 v-2.0 M550,618.4 v-12.4 h12.4 v6.800000000000001 h-6.0 v-2.0 M570,618.4 v-12.4 h12.4 v6.800000000000001 h-6.0 v-2.0 M590,618.4 v-12.4 h12.4 v6.800000000000001 h-6.0 v-2.0 M610,618.4 v-12.4 h12.4 v6.800000000000001 h-6.0 v-2.0 M630,618.4 v-12.4 h12.4 v6.800000000000001 h-6.0 v-2.0 M650,618.4 v-12.4 h12.4 v6.800000000000001 h-6.0 v-2.0 M670,618.4 v-12.4 h12.4 v6.800000000000001 h-6.0 v-2.0 M690,618.4 v-12.4 h12.4 v6.800000000000001 h-6.0 v-2.0 M710,618.4 v-12.4 h12.4 v6.800000000000001 h-6.0 v-2.0 M730,618.4 v-12.4 h12.4 v6.800000000000001 h-6.0 v-2.0 M750,618.4 v-12.4 h12.4 v6.800000000000001 h-6.0 v-2.0" fill="none" stroke="#241F18" stroke-opacity="0.14" stroke-width="1.6" stroke-linejoin="round" stroke-linecap="square"/><circle cx="600" cy="288" r="208" fill="#EDE4D2" opacity=".72"/><rect x="420" y="132" width="360" height="330" rx="10" fill="#F5EFE2" stroke="#241F18" stroke-width="4.4" stroke-opacity=".6"/><path d="M420,182 h360" stroke="#9E3B2E" stroke-width="6" opacity=".8"/><rect x="452" y="150" width="120" height="12" rx="6" fill="#F5EFE2" opacity=".9"/><rect x="452" y="224" width="22" height="22" rx="5" fill="none" stroke="#241F18" stroke-width="2.6" stroke-opacity=".45"/><path d="M457,235 l6,7 10,-14" fill="none" stroke="#6E7F63" stroke-width="3.6" stroke-linecap="round" stroke-linejoin="round"/><rect x="490" y="230" width="240" height="10" rx="5" fill="#241F18" opacity=".2"/><rect x="452" y="266" width="22" height="22" rx="5" fill="none" stroke="#241F18" stroke-width="2.6" stroke-opacity=".45"/><path d="M457,277 l6,7 10,-14" fill="none" stroke="#6E7F63" stroke-width="3.6" stroke-linecap="round" stroke-linejoin="round"/><rect x="490" y="272" width="214" height="10" rx="5" fill="#241F18" opacity=".2"/><rect x="452" y="308" width="22" height="22" rx="5" fill="none" stroke="#241F18" stroke-width="2.6" stroke-opacity=".45"/><path d="M457,319 l6,7 10,-14" fill="none" stroke="#6E7F63" stroke-width="3.6" stroke-linecap="round" stroke-linejoin="round"/><rect x="490" y="314" width="188" height="10" rx="5" fill="#241F18" opacity=".2"/><rect x="452" y="350" width="22" height="22" rx="5" fill="none" stroke="#241F18" stroke-width="2.6" stroke-opacity=".45"/><path d="M457,361 l6,7 10,-14" fill="none" stroke="#6E7F63" stroke-width="3.6" stroke-linecap="round" stroke-linejoin="round"/><rect x="490" y="356" width="162" height="10" rx="5" fill="#241F18" opacity=".2"/><rect x="452" y="392" width="22" height="22" rx="5" fill="none" stroke="#241F18" stroke-width="2.6" stroke-opacity=".45"/><path d="M457,403 l6,7 10,-14" fill="none" stroke="#6E7F63" stroke-width="3.6" stroke-linecap="round" stroke-linejoin="round"/><rect x="490" y="398" width="136" height="10" rx="5" fill="#241F18" opacity=".2"/><g transform="rotate(-12 700 400)"><circle cx="700" cy="400" r="52" fill="none" stroke="#9E3B2E" stroke-width="7" stroke-opacity=".85"/><path d="M700,362 l9,26 27,0 -22,17 8,26 -22,-16 -22,16 8,-26 -22,-17 27,0 z" fill="#9E3B2E" opacity=".85"/></g><path d="M228,300 q56,-30 112,0 42,52 30,116 -12,60 -86,60 -74,0 -86,-60 -12,-64 30,-116 z" fill="#B98F52" opacity=".85"/><path d="M228,300 q56,-30 112,0" fill="none" stroke="#241F18" stroke-width="5" stroke-opacity=".5"/><path d="M254,286 q30,-16 60,0" fill="none" stroke="#9E3B2E" stroke-width="7" stroke-opacity=".85" stroke-linecap="round"/><path d="M262,376 h64 M262,398 h64 M294,354 v66" stroke="#F5EFE2" stroke-width="8" stroke-linecap="round" opacity=".85"/><rect x="882" y="286" width="180" height="140" rx="10" fill="#45585C" opacity=".18" stroke="#241F18" stroke-width="3.4" stroke-opacity=".45"/><path d="M882,330 h180" stroke="#241F18" stroke-width="2.6" stroke-opacity=".35"/><rect x="906" y="352" width="60" height="10" rx="5" fill="#241F18" opacity=".22"/><rect x="906" y="376" width="100" height="10" rx="5" fill="#241F18" opacity=".18"/><circle cx="1024" cy="380" r="18" fill="#9E3B2E" opacity=".8"/></g><rect x="19" y="19" width="1162" height="642" fill="none" stroke="#241F18" stroke-opacity=".26" stroke-width="1.4"/><rect x="27" y="27" width="1146" height="626" fill="none" stroke="#241F18" stroke-opacity=".13" stroke-width="1"/><g transform="translate(1116,596)"><rect x="0" y="0" width="51" height="51" rx="8.16" fill="#9E3B2E" opacity=".92"/><rect x="8.2" y="9.2" width="15.3" height="4.6" rx="0.9" fill="#F5EFE2" opacity=".93"/><rect x="8.2" y="17.8" width="15.3" height="4.6" rx="0.9" fill="#F5EFE2" opacity=".93"/><rect x="8.2" y="26.5" width="15.3" height="4.6" rx="0.9" fill="#F5EFE2" opacity=".93"/><rect x="8.2" y="35.2" width="15.3" height="4.6" rx="0.9" fill="#F5EFE2" opacity=".93"/><rect x="28.0" y="9.2" width="4.6" height="30.6" rx="0.9" fill="#F5EFE2" opacity=".93"/><rect x="28.0" y="9.2" width="14.8" height="4.6" rx="0.9" fill="#F5EFE2" opacity=".93"/><rect x="28.0" y="22.4" width="14.8" height="4.6" rx="0.9" fill="#F5EFE2" opacity=".93"/><rect x="38.2" y="22.4" width="4.6" height="17.3" rx="0.9" fill="#F5EFE2" opacity=".93"/><rect x="28.0" y="36.2" width="14.8" height="4.6" rx="0.9" fill="#F5EFE2" opacity=".93"/></g></svg>