<svg xmlns="http://www.w3.org/2000/svg" viewBox="0 0 1200 680" width="1200" height="680" role="img"><defs>
<pattern id="pgn" width="7" height="7" patternUnits="userSpaceOnUse">
<circle cx="1.4" cy="1.4" r=".5" fill="#241F18" opacity=".05"/>
<circle cx="5" cy="4.6" r=".4" fill="#241F18" opacity=".04"/>
</pattern>
<radialGradient id="vgn" cx="50%" cy="42%" r="72%">
<stop offset="55%" stop-color="#fff" stop-opacity="0"/>
<stop offset="100%" stop-color="#241F18" stop-opacity=".07"/>
</radialGradient>
<linearGradient id="skn" x1="0" y1="0" x2="0" y2="1">
<stop offset="0" stop-color="#E3D8C2" stop-opacity=".55"/>
<stop offset="1" stop-color="#E3D8C2" stop-opacity="0"/>
</linearGradient>
<clipPath id="cpn"><rect x="0" y="0" width="1200" height="680"/></clipPath>
</defs><g clip-path="url(#cpn)"><rect width="1200" height="680" fill="#F5EFE2"/><rect width="1200" height="680" fill="url(#pgn)"/><rect width="1200" height="680" fill="url(#vgn)"/><rect width="1200" height="680" fill="url(#skn)"/><g transform="translate(90,74) scale(1.7,1.7)" opacity="0.08"><path d="M0,18 c0,-10 8,-16 16,-14 2,-8 12,-11 18,-5 6,-5 15,-2 16,6 7,1 10,8 7,13 z" fill="#241F18"/><path d="M6,18 c2,-6 8,-9 13,-7 M24,10 c4,-3 9,-1 11,3" fill="none" stroke="#F5EFE2" stroke-width="1.6" stroke-linecap="round" opacity=".55"/></g><g transform="translate(1010,60) scale(-1.9,1.9)" opacity="0.07"><path d="M0,18 c0,-10 8,-16 16,-14 2,-8 12,-11 18,-5 6,-5 15,-2 16,6 7,1 10,8 7,13 z" fill="#241F18"/><path d="M6,18 c2,-6 8,-9 13,-7 M24,10 c4,-3 9,-1 11,3" fill="none" stroke="#F5EFE2" stroke-width="1.6" stroke-linecap="round" opacity=".55"/></g><path d="M0,566 H1200" stroke="#241F18" stroke-width="2.6" stroke-opacity=".2"/><path d="M430,618.4 v-12.4 h12.4 v6.800000000000001 h-6.0 v-2.0 M450,618.4 v-12.4 h12.4 v6.800000000000001 h-6.0 v-2.0 M470,618.4 v-12.4 h12.4 v6.800000000000001 h-6.0 v-2.0 M490,618.4 v-12.4 h12.4 v6.800000000000001 h-6.0 v-2.0 M510,618.4 v-12.4 h12.4 v6.800000000000001 h-6.0 v-2.0 M530,618.4 v-12.4 h12.4 v6.800000000000001 h-6.0 v-2.0 M550,618.4 v-12.4 h12.4 v6.800000000000001 h-6.0 v-2.0 M570,618.4 v-12.4 h12.4 v6.800000000000001 h-6.0 v-2.0 M590,618.4 v-12.4 h12.4 v6.800000000000001 h-6.0 v-2.0 M610,618.4 v-12.4 h12.4 v6.800000000000001 h-6.0 v-2.0 M630,618.4 v-12.4 h12.4 v6.800000000000001 h-6.0 v-2.0 M650,618.4 v-12.4 h12.4 v6.800000000000001 h-6.0 v-2.0 M670,618.4 v-12.4 h12.4 v6.800000000000001 h-6.0 v-2.0 M690,618.4 v-12.4 h12.4 v6.800000000000001 h-6.0 v-2.0 M710,618.4 v-12.4 h12.4 v6.800000000000001 h-6.0 v-2.0 M730,618.4 v-12.4 h12.4 v6.800000000000001 h-6.0 v-2.0 M750,618.4 v-12.4 h12.4 v6.800000000000001 h-6.0 v-2.0" fill="none" stroke="#241F18" stroke-opacity="0.14" stroke-width="1.6" stroke-linejoin="round" stroke-linecap="square"/><path d="M-20,376 Q-144,303 -20,337 Q104,287 228,337 Q352,291 476,337 Q600,297 724,337 Q848,285 972,337 Q1096,309 1220,337 L1220,450 L-20,450 Z" fill="#45585C" opacity="0.10"/><path d="M-20,339 Q-123,270 -20,310 Q83,286 187,310 Q290,269 393,310 Q497,281 600,310 Q703,273 807,310 Q910,273 1013,310 Q1117,281 1220,310 L1220,450 L-20,450 Z" fill="#45585C" opacity="0.17"/><circle cx="944" cy="176" r="82" fill="#B98F52" opacity=".28"/><circle cx="944" cy="176" r="58" fill="#B98F52" opacity=".42"/><g transform="translate(240,150) rotate(-20) scale(1.0)" opacity=".8"><path d="M0,0 q34,-40 68,0 -34,40 -68,0 z" fill="#B98F52" opacity=".75"/><path d="M0,0 H68" stroke="#241F18" stroke-width="2.4" stroke-opacity=".35"/><path d="M18,-12 l6,12 M34,-16 l4,16 M50,-12 l-4,12" stroke="#241F18" stroke-width="1.8" stroke-opacity=".22"/></g><g transform="translate(380,240) rotate(24) scale(0.8)" opacity=".8"><path d="M0,0 q34,-40 68,0 -34,40 -68,0 z" fill="#B98F52" opacity=".75"/><path d="M0,0 H68" stroke="#241F18" stroke-width="2.4" stroke-opacity=".35"/><path d="M18,-12 l6,12 M34,-16 l4,16 M50,-12 l-4,12" stroke="#241F18" stroke-width="1.8" stroke-opacity=".22"/></g><g transform="translate(170,320) rotate(40) scale(0.7)" opacity=".8"><path d="M0,0 q34,-40 68,0 -34,40 -68,0 z" fill="#B98F52" opacity=".75"/><path d="M0,0 H68" stroke="#241F18" stroke-width="2.4" stroke-opacity=".35"/><path d="M18,-12 l6,12 M34,-16 l4,16 M50,-12 l-4,12" stroke="#241F18" stroke-width="1.8" stroke-opacity=".22"/></g><g transform="translate(330,400) rotate(-34) scale(0.9)" opacity=".8"><path d="M0,0 q34,-40 68,0 -34,40 -68,0 z" fill="#B98F52" opacity=".75"/><path d="M0,0 H68" stroke="#241F18" stroke-width="2.4" stroke-opacity=".35"/><path d="M18,-12 l6,12 M34,-16 l4,16 M50,-12 l-4,12" stroke="#241F18" stroke-width="1.8" stroke-opacity=".22"/></g><g transform="translate(900,380) rotate(18) scale(0.8)" opacity=".8"><path d="M0,0 q34,-40 68,0 -34,40 -68,0 z" fill="#B98F52" opacity=".75"/><path d="M0,0 H68" stroke="#241F18" stroke-width="2.4" stroke-opacity=".35"/><path d="M18,-12 l6,12 M34,-16 l4,16 M50,-12 l-4,12" stroke="#241F18" stroke-width="1.8" stroke-opacity=".22"/></g><g transform="translate(1030,300) rotate(-26) scale(0.7)" opacity=".8"><path d="M0,0 q34,-40 68,0 -34,40 -68,0 z" fill="#B98F52" opacity=".75"/><path d="M0,0 H68" stroke="#241F18" stroke-width="2.4" stroke-opacity=".35"/><path d="M18,-12 l6,12 M34,-16 l4,16 M50,-12 l-4,12" stroke="#241F18" stroke-width="1.8" stroke-opacity=".22"/></g><path d="M496,352 h208 q-10,116 -104,118 -94,-2 -104,-118 z" fill="#F5EFE2" stroke="#241F18" stroke-width="4.4" stroke-opacity=".7"/><path d="M496,352 h208" stroke="#9E3B2E" stroke-width="7" opacity=".8"/><ellipse cx="600" cy="352" rx="104" ry="22" fill="#6E7F63" opacity=".35"/><ellipse cx="600" cy="486" rx="130" ry="26" fill="#B98F52" opacity=".55"/><path d="M704,382 q46,4 44,42 -2,34 -44,34" fill="none" stroke="#241F18" stroke-width="7" stroke-opacity=".55" stroke-linecap="round"/><path d="M552,312 q12,-26 -2,-48 q-12,-22 4,-44" fill="none" stroke="#241F18" stroke-width="4" stroke-opacity="0.28" stroke-linecap="round"/><path d="M600,312 q12,-26 -2,-48 q-12,-22 4,-44" fill="none" stroke="#241F18" stroke-width="4" stroke-opacity="0.23" stroke-linecap="round"/><path d="M648,312 q12,-26 -2,-48 q-12,-22 4,-44" fill="none" stroke="#241F18" stroke-width="4" stroke-opacity="0.18" stroke-linecap="round"/></g><rect x="19" y="19" width="1162" height="642" fill="none" stroke="#241F18" stroke-opacity=".26" stroke-width="1.4"/><rect x="27" y="27" width="1146" height="626" fill="none" stroke="#241F18" stroke-opacity=".13" stroke-width="1"/><g transform="translate(1116,596)"><rect x="0" y="0" width="51" height="51" rx="8.16" fill="#9E3B2E" opacity=".92"/><rect x="8.2" y="9.2" width="15.3" height="4.6" rx="0.9" fill="#F5EFE2" opacity=".93"/><rect x="8.2" y="17.8" width="15.3" height="4.6" rx="0.9" fill="#F5EFE2" opacity=".93"/><rect x="8.2" y="26.5" width="15.3" height="4.6" rx="0.9" fill="#F5EFE2" opacity=".93"/><rect x="8.2" y="35.2" width="15.3" height="4.6" rx="0.9" fill="#F5EFE2" opacity=".93"/><rect x="28.0" y="9.2" width="4.6" height="30.6" rx="0.9" fill="#F5EFE2" opacity=".93"/><rect x="28.0" y="9.2" width="14.8" height="4.6" rx="0.9" fill="#F5EFE2" opacity=".93"/><rect x="28.0" y="22.4" width="14.8" height="4.6" rx="0.9" fill="#F5EFE2" opacity=".93"/><rect x="38.2" y="22.4" width="4.6" height="17.3" rx="0.9" fill="#F5EFE2" opacity=".93"/><rect x="28.0" y="36.2" width="14.8" height="4.6" rx="0.9" fill="#F5EFE2" opacity=".93"/></g></svg>