<svg xmlns="http://www.w3.org/2000/svg" viewBox="0 0 800 600" width="800" height="600" role="img"><defs>
<pattern id="pgh" width="7" height="7" patternUnits="userSpaceOnUse">
<circle cx="1.4" cy="1.4" r=".5" fill="#241F18" opacity=".05"/>
<circle cx="5" cy="4.6" r=".4" fill="#241F18" opacity=".04"/>
</pattern>
<radialGradient id="vgh" cx="50%" cy="42%" r="72%">
<stop offset="55%" stop-color="#fff" stop-opacity="0"/>
<stop offset="100%" stop-color="#241F18" stop-opacity=".07"/>
</radialGradient>
<linearGradient id="skh" x1="0" y1="0" x2="0" y2="1">
<stop offset="0" stop-color="#E3D8C2" stop-opacity=".55"/>
<stop offset="1" stop-color="#E3D8C2" stop-opacity="0"/>
</linearGradient>
<clipPath id="cph"><rect x="0" y="0" width="800" height="600"/></clipPath>
</defs><g clip-path="url(#cph)"><rect width="800" height="600" fill="#F5EFE2"/><rect width="800" height="600" fill="url(#pgh)"/><rect width="800" height="600" fill="url(#vgh)"/><circle cx="400" cy="292" r="196" fill="#EDE4D2" opacity=".9"/><circle cx="400" cy="292" r="196" fill="none" stroke="#241F18" stroke-width="2.4" stroke-opacity=".22"/><circle cx="400" cy="292" r="212" fill="none" stroke="#9E3B2E" stroke-width="1.4" stroke-opacity=".28" stroke-dasharray="3 9"/><g transform="translate(84,92) scale(1.3,1.3)" opacity="0.08"><path d="M0,18 c0,-10 8,-16 16,-14 2,-8 12,-11 18,-5 6,-5 15,-2 16,6 7,1 10,8 7,13 z" fill="#241F18"/><path d="M6,18 c2,-6 8,-9 13,-7 M24,10 c4,-3 9,-1 11,3" fill="none" stroke="#F5EFE2" stroke-width="1.6" stroke-linecap="round" opacity=".55"/></g><g transform="translate(660,78) scale(-1.5,1.5)" opacity="0.07"><path d="M0,18 c0,-10 8,-16 16,-14 2,-8 12,-11 18,-5 6,-5 15,-2 16,6 7,1 10,8 7,13 z" fill="#241F18"/><path d="M6,18 c2,-6 8,-9 13,-7 M24,10 c4,-3 9,-1 11,3" fill="none" stroke="#F5EFE2" stroke-width="1.6" stroke-linecap="round" opacity=".55"/></g><path d="M96,512 H704" stroke="#241F18" stroke-width="2.4" stroke-opacity=".24"/><path d="M230,552.96 v-11.16 h11.16 v6.12 h-5.3999999999999995 v-1.8 M248,552.96 v-11.16 h11.16 v6.12 h-5.3999999999999995 v-1.8 M266,552.96 v-11.16 h11.16 v6.12 h-5.3999999999999995 v-1.8 M284,552.96 v-11.16 h11.16 v6.12 h-5.3999999999999995 v-1.8 M302,552.96 v-11.16 h11.16 v6.12 h-5.3999999999999995 v-1.8 M320,552.96 v-11.16 h11.16 v6.12 h-5.3999999999999995 v-1.8 M338,552.96 v-11.16 h11.16 v6.12 h-5.3999999999999995 v-1.8 M356,552.96 v-11.16 h11.16 v6.12 h-5.3999999999999995 v-1.8 M374,552.96 v-11.16 h11.16 v6.12 h-5.3999999999999995 v-1.8 M392,552.96 v-11.16 h11.16 v6.12 h-5.3999999999999995 v-1.8 M410,552.96 v-11.16 h11.16 v6.12 h-5.3999999999999995 v-1.8 M428,552.96 v-11.16 h11.16 v6.12 h-5.3999999999999995 v-1.8 M446,552.96 v-11.16 h11.16 v6.12 h-5.3999999999999995 v-1.8 M464,552.96 v-11.16 h11.16 v6.12 h-5.3999999999999995 v-1.8 M482,552.96 v-11.16 h11.16 v6.12 h-5.3999999999999995 v-1.8 M500,552.96 v-11.16 h11.16 v6.12 h-5.3999999999999995 v-1.8 M518,552.96 v-11.16 h11.16 v6.12 h-5.3999999999999995 v-1.8 M536,552.96 v-11.16 h11.16 v6.12 h-5.3999999999999995 v-1.8" fill="none" stroke="#241F18" stroke-opacity="0.16" stroke-width="1.5" stroke-linejoin="round" stroke-linecap="square"/><ellipse cx="400" cy="416" rx="196" ry="52" fill="#B98F52" opacity=".38"/><ellipse cx="400" cy="404" rx="196" ry="52" fill="#B98F52" opacity=".72"/><ellipse cx="400" cy="404" rx="196" ry="52" fill="none" stroke="#241F18" stroke-width="3" stroke-opacity=".35"/><path d="M300,300 h200 q-8,86 -100,88 -92,-2 -100,-88 z" fill="#F5EFE2" stroke="#241F18" stroke-width="4" stroke-opacity=".72"/><path d="M300,300 h200" stroke="#9E3B2E" stroke-width="6" opacity=".8"/><path d="M330,352 q70,18 140,0" fill="none" stroke="#241F18" stroke-width="2.4" stroke-opacity=".2"/><ellipse cx="400" cy="300" rx="100" ry="20" fill="#6E7F63" opacity=".38"/><path d="M360,266 q10,-22 -2,-40 q-10,-18 4,-38" fill="none" stroke="#241F18" stroke-width="3.4" stroke-opacity="0.30" stroke-linecap="round"/><path d="M400,266 q10,-22 -2,-40 q-10,-18 4,-38" fill="none" stroke="#241F18" stroke-width="3.4" stroke-opacity="0.25" stroke-linecap="round"/><path d="M440,266 q10,-22 -2,-40 q-10,-18 4,-38" fill="none" stroke="#241F18" stroke-width="3.4" stroke-opacity="0.20" stroke-linecap="round"/><ellipse cx="228" cy="368" rx="56" ry="20" fill="#F5EFE2" stroke="#241F18" stroke-width="3" stroke-opacity=".5"/><ellipse cx="228" cy="362" rx="38" ry="12" fill="#6E7F63" opacity=".5"/><ellipse cx="572" cy="368" rx="56" ry="20" fill="#F5EFE2" stroke="#241F18" stroke-width="3" stroke-opacity=".5"/><ellipse cx="572" cy="362" rx="38" ry="12" fill="#9E3B2E" opacity=".4"/><path d="M596,258 l-52,120 M616,264 l-50,118" stroke="#B98F52" stroke-width="7" stroke-linecap="round" opacity=".85"/><circle cx="214" cy="204" r="34" fill="#6E7F63" opacity=".28"/><path d="M214,170 q22,34 0,68 q-22,-34 0,-68" fill="#6E7F63" opacity=".6"/></g><rect x="17" y="17" width="766" height="566" fill="none" stroke="#241F18" stroke-opacity=".26" stroke-width="1.4"/><rect x="24" y="24" width="752" height="552" fill="none" stroke="#241F18" stroke-opacity=".13" stroke-width="1"/><g transform="translate(724,524)"><rect x="0" y="0" width="45" height="45" rx="7.2" fill="#9E3B2E" opacity=".92"/><rect x="7.2" y="8.1" width="13.5" height="4.0" rx="0.8" fill="#F5EFE2" opacity=".93"/><rect x="7.2" y="15.8" width="13.5" height="4.0" rx="0.8" fill="#F5EFE2" opacity=".93"/><rect x="7.2" y="23.4" width="13.5" height="4.0" rx="0.8" fill="#F5EFE2" opacity=".93"/><rect x="7.2" y="31.1" width="13.5" height="4.0" rx="0.8" fill="#F5EFE2" opacity=".93"/><rect x="24.8" y="8.1" width="4.0" height="27.0" rx="0.8" fill="#F5EFE2" opacity=".93"/><rect x="24.8" y="8.1" width="13.0" height="4.0" rx="0.8" fill="#F5EFE2" opacity=".93"/><rect x="24.8" y="19.8" width="13.0" height="4.0" rx="0.8" fill="#F5EFE2" opacity=".93"/><rect x="33.8" y="19.8" width="4.0" height="15.3" rx="0.8" fill="#F5EFE2" opacity=".93"/><rect x="24.8" y="31.9" width="13.0" height="4.0" rx="0.8" fill="#F5EFE2" opacity=".93"/></g></svg>