<svg xmlns="http://www.w3.org/2000/svg" viewBox="0 0 1200 680" width="1200" height="680" role="img"><defs>
<pattern id="pgm" width="7" height="7" patternUnits="userSpaceOnUse">
<circle cx="1.4" cy="1.4" r=".5" fill="#241F18" opacity=".05"/>
<circle cx="5" cy="4.6" r=".4" fill="#241F18" opacity=".04"/>
</pattern>
<radialGradient id="vgm" cx="50%" cy="42%" r="72%">
<stop offset="55%" stop-color="#fff" stop-opacity="0"/>
<stop offset="100%" stop-color="#241F18" stop-opacity=".07"/>
</radialGradient>
<linearGradient id="skm" x1="0" y1="0" x2="0" y2="1">
<stop offset="0" stop-color="#E3D8C2" stop-opacity=".55"/>
<stop offset="1" stop-color="#E3D8C2" stop-opacity="0"/>
</linearGradient>
<clipPath id="cpm"><rect x="0" y="0" width="1200" height="680"/></clipPath>
</defs><g clip-path="url(#cpm)"><rect width="1200" height="680" fill="#F5EFE2"/><rect width="1200" height="680" fill="url(#pgm)"/><rect width="1200" height="680" fill="url(#vgm)"/><rect width="1200" height="680" fill="url(#skm)"/><g transform="translate(90,74) scale(1.7,1.7)" opacity="0.08"><path d="M0,18 c0,-10 8,-16 16,-14 2,-8 12,-11 18,-5 6,-5 15,-2 16,6 7,1 10,8 7,13 z" fill="#241F18"/><path d="M6,18 c2,-6 8,-9 13,-7 M24,10 c4,-3 9,-1 11,3" fill="none" stroke="#F5EFE2" stroke-width="1.6" stroke-linecap="round" opacity=".55"/></g><g transform="translate(1010,60) scale(-1.9,1.9)" opacity="0.07"><path d="M0,18 c0,-10 8,-16 16,-14 2,-8 12,-11 18,-5 6,-5 15,-2 16,6 7,1 10,8 7,13 z" fill="#241F18"/><path d="M6,18 c2,-6 8,-9 13,-7 M24,10 c4,-3 9,-1 11,3" fill="none" stroke="#F5EFE2" stroke-width="1.6" stroke-linecap="round" opacity=".55"/></g><path d="M0,566 H1200" stroke="#241F18" stroke-width="2.6" stroke-opacity=".2"/><path d="M430,618.4 v-12.4 h12.4 v6.800000000000001 h-6.0 v-2.0 M450,618.4 v-12.4 h12.4 v6.800000000000001 h-6.0 v-2.0 M470,618.4 v-12.4 h12.4 v6.800000000000001 h-6.0 v-2.0 M490,618.4 v-12.4 h12.4 v6.800000000000001 h-6.0 v-2.0 M510,618.4 v-12.4 h12.4 v6.800000000000001 h-6.0 v-2.0 M530,618.4 v-12.4 h12.4 v6.800000000000001 h-6.0 v-2.0 M550,618.4 v-12.4 h12.4 v6.800000000000001 h-6.0 v-2.0 M570,618.4 v-12.4 h12.4 v6.800000000000001 h-6.0 v-2.0 M590,618.4 v-12.4 h12.4 v6.800000000000001 h-6.0 v-2.0 M610,618.4 v-12.4 h12.4 v6.800000000000001 h-6.0 v-2.0 M630,618.4 v-12.4 h12.4 v6.800000000000001 h-6.0 v-2.0 M650,618.4 v-12.4 h12.4 v6.800000000000001 h-6.0 v-2.0 M670,618.4 v-12.4 h12.4 v6.800000000000001 h-6.0 v-2.0 M690,618.4 v-12.4 h12.4 v6.800000000000001 h-6.0 v-2.0 M710,618.4 v-12.4 h12.4 v6.800000000000001 h-6.0 v-2.0 M730,618.4 v-12.4 h12.4 v6.800000000000001 h-6.0 v-2.0 M750,618.4 v-12.4 h12.4 v6.800000000000001 h-6.0 v-2.0" fill="none" stroke="#241F18" stroke-opacity="0.14" stroke-width="1.6" stroke-linejoin="round" stroke-linecap="square"/><circle cx="600" cy="292" r="212" fill="#EDE4D2" opacity=".8"/><path d="M600,120 l150,52 v122 c0,96 -70,158 -150,190 -80,-32 -150,-94 -150,-190 V172 z" fill="#45585C" opacity=".16"/><path d="M600,120 l150,52 v122 c0,96 -70,158 -150,190 -80,-32 -150,-94 -150,-190 V172 z" fill="none" stroke="#241F18" stroke-width="4.4" stroke-opacity=".6"/><path d="M540,296 l42,44 96,-108" fill="none" stroke="#9E3B2E" stroke-width="15" stroke-linecap="round" stroke-linejoin="round"/><g transform="rotate(-7 268 340)"><rect x="180" y="222" width="176" height="230" rx="8" fill="#F5EFE2" stroke="#241F18" stroke-width="3.4" stroke-opacity=".55"/><path d="M180,262 h176" stroke="#9E3B2E" stroke-width="5" opacity=".7"/><rect x="204" y="292" width="128" height="8" rx="4" fill="#241F18" opacity=".2"/><rect x="204" y="318" width="106" height="8" rx="4" fill="#241F18" opacity=".2"/><rect x="204" y="344" width="84" height="8" rx="4" fill="#241F18" opacity=".2"/><rect x="204" y="370" width="128" height="8" rx="4" fill="#241F18" opacity=".2"/><rect x="204" y="396" width="106" height="8" rx="4" fill="#241F18" opacity=".2"/><rect x="204" y="422" width="84" height="8" rx="4" fill="#241F18" opacity=".2"/></g><g transform="rotate(6 940 344)"><rect x="852" y="230" width="176" height="230" rx="8" fill="#F5EFE2" stroke="#241F18" stroke-width="3.4" stroke-opacity=".55"/><rect x="876" y="268" width="128" height="8" rx="4" fill="#241F18" opacity=".2"/><rect x="876" y="294" width="98" height="8" rx="4" fill="#241F18" opacity=".2"/><rect x="876" y="320" width="128" height="8" rx="4" fill="#241F18" opacity=".2"/><rect x="876" y="346" width="98" height="8" rx="4" fill="#241F18" opacity=".2"/><rect x="876" y="372" width="128" height="8" rx="4" fill="#241F18" opacity=".2"/><circle cx="964" cy="412" r="30" fill="none" stroke="#9E3B2E" stroke-width="5" stroke-opacity=".8"/><path d="M948,412 h32 M964,396 v32" stroke="#9E3B2E" stroke-width="4" stroke-opacity=".8"/></g></g><rect x="19" y="19" width="1162" height="642" fill="none" stroke="#241F18" stroke-opacity=".26" stroke-width="1.4"/><rect x="27" y="27" width="1146" height="626" fill="none" stroke="#241F18" stroke-opacity=".13" stroke-width="1"/><g transform="translate(1116,596)"><rect x="0" y="0" width="51" height="51" rx="8.16" fill="#9E3B2E" opacity=".92"/><rect x="8.2" y="9.2" width="15.3" height="4.6" rx="0.9" fill="#F5EFE2" opacity=".93"/><rect x="8.2" y="17.8" width="15.3" height="4.6" rx="0.9" fill="#F5EFE2" opacity=".93"/><rect x="8.2" y="26.5" width="15.3" height="4.6" rx="0.9" fill="#F5EFE2" opacity=".93"/><rect x="8.2" y="35.2" width="15.3" height="4.6" rx="0.9" fill="#F5EFE2" opacity=".93"/><rect x="28.0" y="9.2" width="4.6" height="30.6" rx="0.9" fill="#F5EFE2" opacity=".93"/><rect x="28.0" y="9.2" width="14.8" height="4.6" rx="0.9" fill="#F5EFE2" opacity=".93"/><rect x="28.0" y="22.4" width="14.8" height="4.6" rx="0.9" fill="#F5EFE2" opacity=".93"/><rect x="38.2" y="22.4" width="4.6" height="17.3" rx="0.9" fill="#F5EFE2" opacity=".93"/><rect x="28.0" y="36.2" width="14.8" height="4.6" rx="0.9" fill="#F5EFE2" opacity=".93"/></g></svg>